# xmcd CD database file
#
# Track frame offsets:
#	150
#	11780
#	27235
#	40360
#	60048
#	76114
#	99221
#	116792
#	136502
#	151635
#	174607
#	189960
#	201347
#	215495
#	237621
#
# Disc length: 3557 seconds
#
# Revision: 0
# Processed by: cddbd v1.5.1PL0 Copyright (c) Steve Scherf et al.
# Submitted via: CDex 1.51
#
DISCID=b80de30f
DTITLE=Secret Garden - Ultimate Secret Garden- Disc B
DYEAR=2004
DGENRE=New Age
TTITLE0=Secret Garden - The Rap
TTITLE1=Secret Garden - Moving
TTITLE2=Secret Garden - Adagio
TTITLE3=Secret Garden - Hymm To Hope(feat. Shin Young
TTITLE4=Secret Garden - Song from a Secret Garden(feat
TTITLE5=Secret Garden - Poeme
TTITLE6=Secret Garden - Pastorale
TTITLE7=Secret Garden - Steps
TTITLE8=Secret Garden - Elan
TTITLE9=Secret Garden - Sona
TTITLE10=Secret Garden - Windancer
TTITLE11=Secret Garden - Song from a Secret Garden
TTITLE12=Secret Garden - Ode to Simplicity
TTITLE13=Secret Garden - Dreamcatcher
TTITLE14=Secret Garden - Dawn of a New Century
EXTD=YEAR: 2004
EXTT0=
EXTT1=
EXTT2=
EXTT3=
EXTT4=
EXTT5=
EXTT6=
EXTT7=
EXTT8=
EXTT9=
EXTT10=
EXTT11=
EXTT12=
EXTT13=
EXTT14=
PLAYORDER=
